<svg width="46" height="45" viewBox="0 0 46 45" fill="none" xmlns="http://www.w3.org/2000/svg">
<mask id="mask0_221_153" style="mask-type:luminance" maskUnits="userSpaceOnUse" x="0" y="0" width="46" height="45">
<path d="M45.2377 0H0V45H45.2377V0Z" fill="white"/>
</mask>
<g mask="url(#mask0_221_153)">
<path d="M22.7994 0.00136751C22.5067 -0.00302756 22.2159 0.00323901 21.9321 0.0191915C19.7858 0.1403 17.9712 1.12488 16.011 1.90899C13.3196 2.98554 10.6749 4.17978 7.98389 5.25616C5.35946 6.30593 2.92598 7.38924 1.37346 9.9768C0.703944 11.0927 0.0498113 12.6044 0.0432187 13.9267C0.0151391 19.5922 0 25.2565 0 30.9221C0 33.4623 1.64652 35.7886 3.34717 37.4892C4.57128 38.7133 7.28621 39.689 8.92753 40.2361C13.7251 41.8354 18.1394 45 23.3488 45.0001C25.5368 45.0001 27.7176 43.8202 29.7024 43.0263C32.1336 42.0538 34.4865 41.0338 36.913 40.0632C38.4577 39.4453 40.0768 38.8833 41.4201 37.8758C42.7417 36.8846 43.6693 35.6079 44.3805 34.1853C44.8926 33.1612 45.1912 31.7541 45.197 30.6219C45.2244 25.2998 45.2377 19.9764 45.2377 14.6542C45.2377 13.4818 44.921 11.5825 44.167 10.577C43.3653 9.50823 42.7817 8.43999 41.7201 7.52996C40.5117 6.49419 39.0627 5.96849 37.5998 5.38337C35.5452 4.5615 33.5171 3.67451 31.4624 2.85263C29.4449 2.04564 27.4723 1.09354 25.409 0.405795C24.58 0.129475 23.6778 0.0147155 22.7994 0.00136751ZM22.5756 4.39644C24.3976 4.39652 26.0817 5.32836 27.7261 5.98615C29.0649 6.52162 30.4946 7.02575 31.7625 7.6597C32.9663 8.26158 34.3289 8.70206 35.5828 9.20359C36.0446 9.38826 36.8324 9.54111 37.1267 9.93358C36.8949 10.1653 36.5423 10.237 36.2263 10.3634C35.1537 10.7924 34.0795 11.2211 33.0063 11.6504C31.2131 12.3676 29.4357 13.1229 27.6422 13.8403C25.7049 14.6152 24.1032 15.4145 21.9321 15.3002C20.8657 15.2441 19.8567 14.7427 18.8851 14.354C17.3062 13.7225 15.7427 13.0549 14.1644 12.4236C12.6742 11.8275 11.1906 11.2162 9.70074 10.6203C9.27319 10.4493 8.36447 10.2666 8.11363 9.89028C8.48574 9.51816 9.12254 9.47104 9.571 9.24681C10.6875 8.68855 11.9394 8.3844 13.0479 7.83013C14.6732 7.01753 16.4554 6.36592 18.1551 5.68599C19.5951 5.10999 20.9738 4.39644 22.5756 4.39644ZM4.72063 13.2401C6.09621 13.4613 7.37566 14.2659 8.67058 14.7839C11.25 15.8156 13.8166 16.8861 16.3951 17.9175C17.4559 18.3418 18.5113 18.7802 19.5718 19.2044C19.8101 19.2997 20.4279 19.4163 20.5587 19.6342C20.582 19.6731 20.6017 19.7187 20.6019 19.764C20.6161 23.312 20.6161 26.8602 20.6019 30.4083C20.6017 30.4841 20.4643 30.6219 20.3882 30.6219C20.0836 30.6219 19.6824 30.3477 19.4014 30.2353C18.5431 29.892 17.6831 29.5485 16.8249 29.2052C13.8575 28.0182 10.9081 26.7882 7.94067 25.6012C7.01071 25.2292 6.07993 24.8564 5.15045 24.4846C4.98344 24.4178 4.21097 24.2316 4.2069 24.0115C4.15098 20.979 4.22301 17.9466 4.25012 14.9136C4.25435 14.4352 4.21227 13.1583 4.72063 13.2401ZM40.4738 13.2807C41.2572 13.1348 41.0308 15.3703 41.0334 15.9438C41.0459 18.6477 41.0757 21.3511 41.0334 24.0548C41.0308 24.22 40.3414 24.4431 40.2169 24.4846C39.2731 24.7992 38.3508 25.2315 37.4268 25.6012C34.3752 26.8218 31.3356 28.0717 28.2856 29.2918C27.6528 29.5449 25.3504 30.7122 24.8088 30.6219C24.7312 30.609 24.5955 30.4937 24.5951 30.4083C24.5809 27.0605 24.5951 23.712 24.5951 20.3642C24.5951 20.1496 24.546 19.9296 24.5951 19.7208C24.646 19.5046 25.3105 19.3217 25.4955 19.2476C26.4967 18.8472 27.4977 18.4478 28.4994 18.0471C32.4712 16.4584 36.2683 14.0641 40.4738 13.2807ZM4.33655 28.7754C8.35861 30.1161 12.1172 31.8892 15.9246 33.4121C18.5446 34.4601 20.7915 35.5797 23.7354 35.2993C25.3725 35.1434 26.9107 34.3563 28.4128 33.7554C31.1266 32.6699 33.8558 31.621 36.5697 30.5355C37.714 30.0777 38.8585 29.6199 40.0033 29.162C40.2974 29.0444 40.6267 28.8186 40.9469 28.8186C40.9613 28.8615 40.9901 28.9031 40.9901 28.9484C40.9901 30.312 40.9495 31.2576 40.6468 32.4685C40.1073 34.6265 36.1224 35.7102 34.2501 36.4591C31.8676 37.4121 29.5089 38.4232 27.1258 39.3765C25.9619 39.842 24.6323 40.5795 23.3488 40.5795C20.8868 40.5795 19.0281 39.7007 16.8249 38.8195C14.9008 38.0498 12.9961 37.2279 11.0742 36.4591C8.4339 35.403 4.6683 34.5675 4.25012 31.2222C4.1754 30.6247 3.99423 29.1177 4.33655 28.7754Z" fill="black"/>
</g>
</svg>
