<svg width="84" height="881" viewBox="0 0 84 881" fill="none" xmlns="http://www.w3.org/2000/svg">
<circle cx="42" cy="42" r="40.5" stroke="#AAAAAA" stroke-width="3"/>
<path d="M46.0114 29.7273V53H41.0909V34.3977H40.9545L35.625 37.7386V33.375L41.3864 29.7273H46.0114Z" fill="#AAAAAA"/>
<circle cx="42" cy="195" r="40.5" stroke="#AAAAAA" stroke-width="3"/>
<path d="M33.8864 206V202.455L42.1705 194.784C42.875 194.102 43.4659 193.489 43.9432 192.943C44.428 192.398 44.7955 191.864 45.0455 191.341C45.2955 190.811 45.4205 190.239 45.4205 189.625C45.4205 188.943 45.2652 188.356 44.9545 187.864C44.6439 187.364 44.2197 186.981 43.6818 186.716C43.1439 186.443 42.5341 186.307 41.8523 186.307C41.1402 186.307 40.5189 186.451 39.9886 186.739C39.4583 187.027 39.0492 187.439 38.7614 187.977C38.4735 188.515 38.3295 189.155 38.3295 189.898H33.6591C33.6591 188.375 34.0038 187.053 34.6932 185.932C35.3826 184.811 36.3485 183.943 37.5909 183.33C38.8333 182.716 40.2652 182.409 41.8864 182.409C43.553 182.409 45.0038 182.705 46.2386 183.295C47.4811 183.879 48.447 184.689 49.1364 185.727C49.8258 186.765 50.1705 187.955 50.1705 189.295C50.1705 190.174 49.9962 191.042 49.6477 191.898C49.3068 192.754 48.697 193.705 47.8182 194.75C46.9394 195.788 45.7008 197.034 44.1023 198.489L40.7045 201.818V201.977H50.4773V206H33.8864Z" fill="#AAAAAA"/>
<circle cx="42" cy="364" r="40.5" stroke="#AAAAAA" stroke-width="3"/>
<path d="M41.4886 375.318C39.7917 375.318 38.2803 375.027 36.9545 374.443C35.6364 373.852 34.5947 373.042 33.8295 372.011C33.072 370.973 32.6818 369.777 32.6591 368.42H37.6136C37.6439 368.989 37.8295 369.489 38.1705 369.92C38.5189 370.345 38.9811 370.674 39.5568 370.909C40.1326 371.144 40.7803 371.261 41.5 371.261C42.25 371.261 42.9129 371.129 43.4886 370.864C44.0644 370.598 44.5152 370.231 44.8409 369.761C45.1667 369.292 45.3295 368.75 45.3295 368.136C45.3295 367.515 45.1553 366.966 44.8068 366.489C44.4659 366.004 43.9735 365.625 43.3295 365.352C42.6932 365.08 41.9356 364.943 41.0568 364.943H38.8864V361.33H41.0568C41.7992 361.33 42.4545 361.201 43.0227 360.943C43.5985 360.686 44.0455 360.33 44.3636 359.875C44.6818 359.413 44.8409 358.875 44.8409 358.261C44.8409 357.678 44.7008 357.167 44.4205 356.727C44.1477 356.28 43.7614 355.932 43.2614 355.682C42.7689 355.432 42.1932 355.307 41.5341 355.307C40.8674 355.307 40.2576 355.428 39.7045 355.67C39.1515 355.905 38.7083 356.242 38.375 356.682C38.0417 357.121 37.8636 357.636 37.8409 358.227H33.125C33.1477 356.886 33.5303 355.705 34.2727 354.682C35.0152 353.659 36.0152 352.86 37.2727 352.284C38.5379 351.701 39.9659 351.409 41.5568 351.409C43.1629 351.409 44.5682 351.701 45.7727 352.284C46.9773 352.867 47.9129 353.655 48.5795 354.648C49.2538 355.633 49.5871 356.739 49.5795 357.966C49.5871 359.269 49.1818 360.356 48.3636 361.227C47.553 362.098 46.4962 362.652 45.1932 362.886V363.068C46.9053 363.288 48.2083 363.883 49.1023 364.852C50.0038 365.814 50.4508 367.019 50.4432 368.466C50.4508 369.792 50.0682 370.97 49.2955 372C48.5303 373.03 47.4735 373.841 46.125 374.432C44.7765 375.023 43.2311 375.318 41.4886 375.318Z" fill="#AAAAAA"/>
<path d="M42 83V155" stroke="#AAAAAA" stroke-width="3"/>
<path d="M42 235V323" stroke="#AAAAAA" stroke-width="3"/>
<circle cx="42" cy="534" r="40.5" stroke="#AAAAAA" stroke-width="3"/>
<path d="M32.5341 540.909V537.034L42.25 521.727H45.5909V527.091H43.6136L37.4886 536.784V536.966H51.2955V540.909H32.5341ZM43.7045 545V539.727L43.7955 538.011V521.727H48.4091V545H43.7045Z" fill="#AAAAAA"/>
<path d="M42 405V493" stroke="#AAAAAA" stroke-width="3"/>
<circle cx="42" cy="682" r="40.5" stroke="#AAAAAA" stroke-width="3"/>
<path d="M42.3864 693.318C40.7803 693.318 39.3485 693.023 38.0909 692.432C36.8409 691.841 35.8485 691.027 35.1136 689.989C34.3788 688.951 33.9962 687.761 33.9659 686.42H38.7386C38.7917 687.322 39.1705 688.053 39.875 688.614C40.5795 689.174 41.4167 689.455 42.3864 689.455C43.1591 689.455 43.8409 689.284 44.4318 688.943C45.0303 688.595 45.4962 688.114 45.8295 687.5C46.1705 686.879 46.3409 686.167 46.3409 685.364C46.3409 684.545 46.1667 683.826 45.8182 683.205C45.4773 682.583 45.0038 682.098 44.3977 681.75C43.7917 681.402 43.0985 681.223 42.3182 681.216C41.6364 681.216 40.9735 681.356 40.3295 681.636C39.6932 681.917 39.197 682.299 38.8409 682.784L34.4659 682L35.5682 669.727H49.7955V673.75H39.625L39.0227 679.58H39.1591C39.5682 679.004 40.1856 678.527 41.0114 678.148C41.8371 677.769 42.7614 677.58 43.7841 677.58C45.1856 677.58 46.4356 677.909 47.5341 678.568C48.6326 679.227 49.5 680.133 50.1364 681.284C50.7727 682.428 51.0871 683.746 51.0795 685.239C51.0871 686.807 50.7235 688.201 49.9886 689.42C49.2614 690.633 48.2424 691.587 46.9318 692.284C45.6288 692.973 44.1136 693.318 42.3864 693.318Z" fill="#AAAAAA"/>
<path d="M42 575V641" stroke="#AAAAAA" stroke-width="3"/>
<circle cx="42" cy="839" r="40.5" stroke="#AAAAAA" stroke-width="3"/>
<path d="M41.8182 850.318C40.6212 850.311 39.4659 850.11 38.3523 849.716C37.2462 849.322 36.2538 848.682 35.375 847.795C34.4962 846.909 33.7992 845.735 33.2841 844.273C32.7765 842.811 32.5227 841.015 32.5227 838.886C32.5303 836.932 32.7538 835.186 33.1932 833.648C33.6402 832.102 34.2765 830.792 35.1023 829.716C35.9356 828.64 36.9318 827.822 38.0909 827.261C39.25 826.693 40.5492 826.409 41.9886 826.409C43.5417 826.409 44.9129 826.712 46.1023 827.318C47.2917 827.917 48.2462 828.731 48.9659 829.761C49.6932 830.792 50.1326 831.947 50.2841 833.227H45.4318C45.2424 832.417 44.8447 831.78 44.2386 831.318C43.6326 830.856 42.8826 830.625 41.9886 830.625C40.4735 830.625 39.322 831.284 38.5341 832.602C37.7538 833.92 37.3561 835.712 37.3409 837.977H37.5C37.8485 837.288 38.3182 836.701 38.9091 836.216C39.5076 835.723 40.1856 835.348 40.9432 835.091C41.7083 834.826 42.5152 834.693 43.3636 834.693C44.7424 834.693 45.9697 835.019 47.0455 835.67C48.1212 836.314 48.9697 837.201 49.5909 838.33C50.2121 839.458 50.5227 840.75 50.5227 842.205C50.5227 843.78 50.1553 845.182 49.4205 846.409C48.6932 847.636 47.6742 848.598 46.3636 849.295C45.0606 849.985 43.5455 850.326 41.8182 850.318ZM41.7955 846.455C42.553 846.455 43.2311 846.273 43.8295 845.909C44.428 845.545 44.8977 845.053 45.2386 844.432C45.5795 843.811 45.75 843.114 45.75 842.341C45.75 841.568 45.5795 840.875 45.2386 840.261C44.9053 839.648 44.4432 839.159 43.8523 838.795C43.2614 838.432 42.5871 838.25 41.8295 838.25C41.2614 838.25 40.7348 838.356 40.25 838.568C39.7727 838.78 39.3523 839.076 38.9886 839.455C38.6326 839.833 38.3523 840.273 38.1477 840.773C37.9432 841.265 37.8409 841.792 37.8409 842.352C37.8409 843.102 38.0114 843.788 38.3523 844.409C38.7008 845.03 39.1705 845.527 39.7614 845.898C40.3598 846.269 41.0379 846.455 41.7955 846.455Z" fill="#AAAAAA"/>
<path d="M42 723V798" stroke="#AAAAAA" stroke-width="3"/>
</svg>
